<svg width="14" height="13" viewBox="0 0 14 13" fill="none" xmlns="http://www.w3.org/2000/svg">
<path d="M7.84999 7.00005L12.825 2.02505C13.075 1.77505 13.075 1.42505 12.825 1.17505C12.575 0.925049 12.225 0.925049 11.975 1.17505L6.99999 6.15005L1.99999 1.20005C1.77499 0.950049 1.39999 0.950049 1.17499 1.20005C0.949988 1.45005 0.924988 1.80005 1.17499 2.05005L6.14999 7.00005L1.17499 11.975C0.924988 12.225 0.924988 12.575 1.17499 12.825C1.29999 12.925 1.42499 13 1.59999 13C1.77499 13 1.89999 12.95 2.02499 12.825L7.02499 7.85005L12.025 12.8C12.15 12.9 12.325 12.975 12.45 12.975C12.575 12.975 12.75 12.925 12.875 12.8C13.125 12.55 13.125 12.2 12.875 11.95L7.84999 7.00005Z" fill="white"/>
</svg>
