<svg width="118" height="26" viewBox="0 0 118 26" fill="none" xmlns="http://www.w3.org/2000/svg">
<path opacity="0.4" d="M2.38275 24.256C1.40142 24.256 0.910752 23.9893 0.910752 23.456L0.974752 19.52L1.03875 15.584C1.03875 14.1547 1.00675 11.9893 0.942752 9.088C0.878752 6.208 0.846752 4.04267 0.846752 2.592V2.4C0.846752 1.84533 0.900085 1.33333 1.00675 0.863998C1.13475 0.287998 1.47609 -1.90735e-06 2.03075 -1.90735e-06C3.52409 -1.90735e-06 4.70809 0.479998 5.58275 1.44C6.45742 2.4 6.89475 3.66933 6.89475 5.248C6.89475 6.208 6.63875 7.21067 6.12675 8.256C5.61475 9.30133 5.00675 10.08 4.30275 10.592C5.54009 11.424 6.44675 12.5013 7.02275 13.824C7.62009 15.1253 7.91875 16.5653 7.91875 18.144C7.91875 18.8907 7.66275 19.8187 7.15075 20.928C6.53209 22.2507 5.68942 23.2 4.62275 23.776C3.98275 24.096 3.27875 24.256 2.51075 24.256H2.38275ZM2.70275 10.112C3.25742 9.984 3.72675 9.52533 4.11075 8.736C4.43075 8.13867 4.72942 7.41333 5.00675 6.56C5.07075 6.32533 5.17742 6.02667 5.32675 5.664V4.544C5.32675 3.904 5.09209 3.28533 4.62275 2.688C4.15342 2.09067 3.62009 1.792 3.02275 1.792C2.72409 1.792 2.57475 2.12267 2.57475 2.784C2.57475 4.192 2.59609 5.45067 2.63875 6.56L2.70275 10.112ZM2.83075 22.592C3.87609 22.4427 4.70809 21.9627 5.32675 21.152C5.94542 20.3413 6.25475 19.3707 6.25475 18.24C6.25475 17.2587 6.16942 16.3627 5.99875 15.552C5.84942 14.72 5.64675 14.0907 5.39075 13.664C5.15609 13.2587 4.92142 12.9173 4.68675 12.64C4.45209 12.3627 4.24942 12.1813 4.07875 12.096L3.82275 12H2.67075C2.77742 14.4533 2.83075 17.984 2.83075 22.592ZM17.8533 24.544C17.3839 24.544 16.9573 24.032 16.5733 23.008C16.1253 21.8987 15.7946 20.7573 15.5813 19.584L15.3573 18.496C14.7386 15.4453 14.3439 13.7067 14.1733 13.28H13.7893C13.7893 13.8987 13.7786 14.464 13.7573 14.976V16.736C13.7573 19.5947 13.9599 21.824 14.3653 23.424L14.0133 24.288H13.1173L12.7013 23.808L12.7333 21.664C12.7333 19.744 12.6373 16.832 12.4453 12.928C12.2746 8.768 12.1893 5.856 12.1893 4.192C12.1893 3.168 12.5413 2.656 13.2453 2.656C14.3973 2.656 15.3359 2.95466 16.0613 3.552C16.8079 4.14933 17.1813 4.98133 17.1813 6.048V8.288C17.1813 8.608 17.1279 8.98133 17.0213 9.408C16.9146 9.81333 16.7973 10.144 16.6693 10.4L16.0613 11.552L15.5493 12.512L15.7093 13.28L16.1573 15.552C16.4559 17.1947 16.7439 18.528 17.0213 19.552C17.2986 20.576 17.6399 21.504 18.0453 22.336L18.2373 22.72C18.4506 23.1467 18.5573 23.488 18.5573 23.744C18.5573 23.9573 18.4933 24.1387 18.3653 24.288C18.2373 24.4587 18.0666 24.544 17.8533 24.544ZM13.9173 11.712C14.3866 11.4773 14.7813 10.8373 15.1013 9.792C15.4426 8.72533 15.6133 7.744 15.6133 6.848C15.6133 6.16533 15.5279 5.52533 15.3573 4.928C15.2506 4.58667 15.0693 4.33067 14.8133 4.16C14.5786 3.968 14.2799 3.872 13.9173 3.872L13.8533 4.032L13.7893 4.32L13.8533 8.096C13.8959 9.20533 13.9173 10.4107 13.9173 11.712ZM24.4428 24.416C24.1654 24.416 23.9094 24.32 23.6748 24.128C23.4614 23.936 23.3441 23.7013 23.3228 23.424V22.592V21.952C23.3014 21.76 23.2908 21.536 23.2908 21.28C23.2908 20.832 23.2588 20.1493 23.1948 19.232L23.1308 17.184C23.1308 16.1387 23.1628 14.5813 23.2268 12.512C23.3121 10.656 23.3548 9.09867 23.3548 7.84C23.3548 7.54133 23.3228 7.09333 23.2588 6.496C23.1948 5.87733 23.1628 5.42933 23.1628 5.152C23.1628 3.63733 23.6108 2.88 24.5068 2.88C25.2108 2.88 26.0214 3.01867 26.9388 3.296C27.8774 3.57333 28.3468 3.904 28.3468 4.288C28.3468 4.50133 28.2508 4.704 28.0588 4.896C27.8881 5.06667 27.6748 5.20533 27.4188 5.312C26.5228 4.992 25.7121 4.77867 24.9868 4.672C25.0081 4.992 25.0188 5.45067 25.0188 6.048C25.0188 6.90133 25.0081 7.66933 24.9868 8.352C24.9228 9.376 24.8908 10.144 24.8908 10.656L24.9868 11.168L25.4988 11.136C25.6694 11.1147 25.8828 11.104 26.1388 11.104C27.1628 11.104 27.6748 11.4027 27.6748 12C27.6748 12.2347 27.5788 12.4373 27.3868 12.608C27.1948 12.7573 26.9494 12.832 26.6508 12.832C26.2668 12.832 25.9681 12.8107 25.7548 12.768H24.9548C24.9974 13.3227 25.0188 14.1333 25.0188 15.2C25.0188 16.2667 25.0081 17.2267 24.9868 18.08C24.9228 19.3813 24.8908 20.352 24.8908 20.992C24.8908 22.1867 24.9121 22.784 24.9548 22.784L26.0108 22.752C26.3734 22.7307 26.8108 22.72 27.3228 22.72C28.1334 22.72 28.5388 22.976 28.5388 23.488C28.5388 23.7867 28.4001 24.0107 28.1228 24.16C27.8668 24.3307 27.5468 24.416 27.1628 24.416H24.4428ZM35.8085 23.904C35.8085 21.4507 35.5738 18.912 35.1045 16.288C34.6565 13.664 33.9418 10.4533 32.9605 6.656C32.9178 6.44267 32.8218 6.112 32.6725 5.664C32.2885 4.46933 32.0965 3.712 32.0965 3.392C32.0965 3.2 32.1712 3.02933 32.3205 2.88C32.4912 2.73067 32.6725 2.656 32.8645 2.656C33.1845 2.656 33.4832 2.92267 33.7605 3.456C34.0378 3.968 34.2938 4.66133 34.5285 5.536C34.7632 6.38933 35.0192 7.456 35.2965 8.736C35.5525 9.952 35.8618 11.8187 36.2245 14.336L36.4165 15.584L36.8005 18.432C36.8858 19.2213 36.9605 19.7867 37.0245 20.128C37.4725 17.7813 38.0485 14.3893 38.7525 9.952C39.3285 6.15467 39.7338 3.56267 39.9685 2.176H40.6725C40.8645 2.176 41.0352 2.25067 41.1845 2.4C41.3338 2.528 41.4085 2.688 41.4085 2.88C41.4085 3.648 41.3125 4.48 41.1205 5.376C40.9498 6.25067 40.6832 7.30667 40.3205 8.544C40.0218 9.61067 39.8192 10.4107 39.7125 10.944C39.6272 11.4773 39.5418 12.32 39.4565 13.472C39.2858 16.0533 39.0192 18.368 38.6565 20.416C38.4218 21.6533 38.1125 22.624 37.7285 23.328C37.3445 24.032 36.9072 24.384 36.4165 24.384L35.8085 23.904ZM47.3465 24.416C47.0692 24.416 46.8132 24.32 46.5785 24.128C46.3652 23.936 46.2478 23.7013 46.2265 23.424V22.592V21.952C46.2052 21.76 46.1945 21.536 46.1945 21.28C46.1945 20.832 46.1625 20.1493 46.0985 19.232L46.0345 17.184C46.0345 16.1387 46.0665 14.5813 46.1305 12.512C46.2158 10.656 46.2585 9.09867 46.2585 7.84C46.2585 7.54133 46.2265 7.09333 46.1625 6.496C46.0985 5.87733 46.0665 5.42933 46.0665 5.152C46.0665 3.63733 46.5145 2.88 47.4105 2.88C48.1145 2.88 48.9252 3.01867 49.8425 3.296C50.7812 3.57333 51.2505 3.904 51.2505 4.288C51.2505 4.50133 51.1545 4.704 50.9625 4.896C50.7918 5.06667 50.5785 5.20533 50.3225 5.312C49.4265 4.992 48.6158 4.77867 47.8905 4.672C47.9118 4.992 47.9225 5.45067 47.9225 6.048C47.9225 6.90133 47.9118 7.66933 47.8905 8.352C47.8265 9.376 47.7945 10.144 47.7945 10.656L47.8905 11.168L48.4025 11.136C48.5732 11.1147 48.7865 11.104 49.0425 11.104C50.0665 11.104 50.5785 11.4027 50.5785 12C50.5785 12.2347 50.4825 12.4373 50.2905 12.608C50.0985 12.7573 49.8532 12.832 49.5545 12.832C49.1705 12.832 48.8718 12.8107 48.6585 12.768H47.8585C47.9012 13.3227 47.9225 14.1333 47.9225 15.2C47.9225 16.2667 47.9118 17.2267 47.8905 18.08C47.8265 19.3813 47.7945 20.352 47.7945 20.992C47.7945 22.1867 47.8158 22.784 47.8585 22.784L48.9145 22.752C49.2772 22.7307 49.7145 22.72 50.2265 22.72C51.0372 22.72 51.4425 22.976 51.4425 23.488C51.4425 23.7867 51.3038 24.0107 51.0265 24.16C50.7705 24.3307 50.4505 24.416 50.0665 24.416H47.3465ZM69.1442 25.664C68.4829 25.664 68.1523 25.0027 68.1523 23.68V21.632V19.584C68.1523 18.5173 68.0776 17.12 67.9283 15.392C67.7576 13.4507 67.6722 12.1173 67.6722 11.392L67.7362 9.408C67.7789 8.832 67.8003 8.18133 67.8003 7.456C67.7149 7.73333 67.3629 9.20533 66.7443 11.872C66.1256 14.4533 65.4856 16.8427 64.8243 19.04C64.1843 21.152 63.6616 22.208 63.2562 22.208C62.8509 22.208 62.5202 22.0907 62.2642 21.856C62.0296 21.6 61.9122 21.2587 61.9122 20.832C61.9122 19.8933 61.5282 17.8987 60.7602 14.848C60.0136 11.7973 59.3309 9.30133 58.7122 7.36L58.5202 10.976C58.3496 14.0267 58.2322 16.5653 58.1682 18.592C58.1256 20.5547 58.1042 21.8987 58.1042 22.624C58.1042 22.7947 58.1149 22.9547 58.1362 23.104V23.552C58.1362 23.9147 58.0616 24.1813 57.9122 24.352C57.7629 24.544 57.4856 24.64 57.0802 24.64C56.8669 24.64 56.6642 24.5547 56.4722 24.384C56.2802 24.2347 56.1842 24.064 56.1842 23.872C56.1842 21.696 56.3442 18.432 56.6642 14.08C56.9842 9.728 57.1442 6.464 57.1442 4.288C57.0162 4.096 56.9522 3.89333 56.9522 3.68C56.9522 3.424 57.0696 3.232 57.3042 3.104C57.5602 2.95467 57.8589 2.88 58.2002 2.88C58.4776 2.88 58.9896 3.88267 59.7362 5.888C60.4829 7.89333 61.2296 10.1653 61.9762 12.704C62.7229 15.2427 63.2029 17.0773 63.4163 18.208C63.5869 17.632 63.7256 17.0987 63.8322 16.608L64.0243 15.84C64.7069 12.8533 65.3896 10.1547 66.0723 7.744C66.4776 6.272 66.8723 5.12 67.2563 4.288C67.6402 3.392 67.9922 2.944 68.3123 2.944C68.6109 2.944 68.8776 3.02933 69.1123 3.2C69.3683 3.34933 69.4963 3.552 69.4963 3.808C69.4963 5.344 69.5603 7.648 69.6883 10.72C69.8376 13.5787 69.9123 15.7973 69.9123 17.376L69.8802 19.072L69.8162 20.768C69.8162 21.024 69.8483 21.408 69.9123 21.92L70.0083 23.04C70.0296 23.232 70.0402 23.3813 70.0402 23.488C70.0616 23.5947 70.0723 23.6587 70.0723 23.68C70.1789 23.9573 70.2323 24.16 70.2323 24.288C70.2323 24.6507 70.1256 24.9707 69.9123 25.248C69.6989 25.5253 69.4429 25.664 69.1442 25.664ZM76.9377 24.416C76.6604 24.416 76.4044 24.32 76.1697 24.128C75.9564 23.936 75.8391 23.7013 75.8177 23.424V22.592V21.952C75.7964 21.76 75.7857 21.536 75.7857 21.28C75.7857 20.832 75.7537 20.1493 75.6897 19.232L75.6257 17.184C75.6257 16.1387 75.6577 14.5813 75.7217 12.512C75.8071 10.656 75.8497 9.09867 75.8497 7.84C75.8497 7.54133 75.8177 7.09333 75.7537 6.496C75.6897 5.87733 75.6577 5.42933 75.6577 5.152C75.6577 3.63733 76.1057 2.88 77.0017 2.88C77.7057 2.88 78.5164 3.01867 79.4337 3.296C80.3724 3.57333 80.8417 3.904 80.8417 4.288C80.8417 4.50133 80.7457 4.704 80.5537 4.896C80.3831 5.06667 80.1697 5.20533 79.9137 5.312C79.0177 4.992 78.2071 4.77867 77.4817 4.672C77.5031 4.992 77.5137 5.45067 77.5137 6.048C77.5137 6.90133 77.5031 7.66933 77.4817 8.352C77.4177 9.376 77.3857 10.144 77.3857 10.656L77.4817 11.168L77.9937 11.136C78.1644 11.1147 78.3777 11.104 78.6337 11.104C79.6577 11.104 80.1697 11.4027 80.1697 12C80.1697 12.2347 80.0737 12.4373 79.8817 12.608C79.6897 12.7573 79.4444 12.832 79.1457 12.832C78.7617 12.832 78.4631 12.8107 78.2497 12.768H77.4497C77.4924 13.3227 77.5137 14.1333 77.5137 15.2C77.5137 16.2667 77.5031 17.2267 77.4817 18.08C77.4177 19.3813 77.3857 20.352 77.3857 20.992C77.3857 22.1867 77.4071 22.784 77.4497 22.784L78.5057 22.752C78.8684 22.7307 79.3057 22.72 79.8177 22.72C80.6284 22.72 81.0337 22.976 81.0337 23.488C81.0337 23.7867 80.8951 24.0107 80.6177 24.16C80.3617 24.3307 80.0417 24.416 79.6577 24.416H76.9377ZM94.5755 24.096C94.3195 24.096 94.1275 24.032 93.9995 23.904C93.8715 23.7547 93.7755 23.5093 93.7115 23.168L93.5195 22.56V22.496V22.4C93.5195 21.696 92.7835 19.296 91.3115 15.2C89.8608 11.104 88.7195 8.07467 87.8875 6.112V22.208L88.0155 22.432C88.0368 22.4747 88.0795 22.5493 88.1435 22.656C88.2075 22.7627 88.2395 22.8693 88.2395 22.976C88.2395 23.2533 88.1435 23.488 87.9515 23.68C87.7595 23.872 87.5248 23.968 87.2475 23.968C86.5648 23.968 86.2235 23.3173 86.2235 22.016L86.1915 16.544C86.1702 14.9013 86.1595 13.0667 86.1595 11.04C86.1595 10.3573 86.1915 9.36533 86.2555 8.064C86.3195 6.72 86.3515 5.728 86.3515 5.088C86.3515 4.08533 86.7355 3.296 87.5035 2.72V2.912C87.6315 2.86933 87.7168 2.848 87.7595 2.848C88.2502 2.848 88.8688 3.70133 89.6155 5.408C90.2128 6.77333 90.7462 8.21333 91.2155 9.728C91.7062 11.2427 92.3462 13.3973 93.1355 16.192L93.4555 17.344C93.9462 19.072 94.3195 20.3093 94.5755 21.056C95.0022 16.4693 95.2155 11.0507 95.2155 4.8V4.384C95.1942 4.256 95.1835 4.11733 95.1835 3.968C95.1835 3.328 95.4395 3.008 95.9515 3.008C96.2502 3.008 96.4742 3.12533 96.6235 3.36C96.7942 3.59467 96.8795 3.89333 96.8795 4.256V6.656C96.8368 9.94133 96.7088 13.504 96.4955 17.344C96.2822 21.184 96.0262 23.3493 95.7275 23.84C95.1088 24.0107 94.7248 24.096 94.5755 24.096ZM104.224 23.488L104.192 22.24C104.171 21.8773 104.16 21.472 104.16 21.024L104.192 19.936C104.128 19.7013 103.968 17.3653 103.712 12.928C103.456 8.49067 103.307 5.64267 103.264 4.384C102.027 4.34133 101.237 4.21333 100.896 4C100.661 3.82933 100.544 3.63733 100.544 3.424C100.544 3.25333 100.651 3.104 100.864 2.976C101.099 2.82667 101.333 2.752 101.568 2.752C102.165 2.752 102.891 2.79467 103.744 2.88C104.555 2.98667 105.28 3.04 105.92 3.04H106.176H106.432C107.093 3.04 107.424 3.296 107.424 3.808C107.424 4.064 107.317 4.27733 107.104 4.448C106.891 4.59733 106.645 4.672 106.368 4.672C106.176 4.672 105.899 4.64 105.536 4.576L104.896 4.448L104.864 4.608L104.832 4.768C104.832 6.66667 105.013 9.696 105.376 13.856C105.717 17.76 105.888 20.7893 105.888 22.944C105.888 23.2 105.771 23.424 105.536 23.616C105.323 23.808 105.077 23.904 104.8 23.904L104.224 23.488ZM113.371 24.416C113.094 24.416 112.838 24.32 112.603 24.128C112.39 23.936 112.273 23.7013 112.251 23.424V22.592V21.952C112.23 21.76 112.219 21.536 112.219 21.28C112.219 20.832 112.187 20.1493 112.123 19.232L112.059 17.184C112.059 16.1387 112.091 14.5813 112.155 12.512C112.241 10.656 112.283 9.09867 112.283 7.84C112.283 7.54133 112.251 7.09333 112.187 6.496C112.123 5.87733 112.091 5.42933 112.091 5.152C112.091 3.63733 112.539 2.88 113.435 2.88C114.139 2.88 114.95 3.01867 115.867 3.296C116.806 3.57333 117.275 3.904 117.275 4.288C117.275 4.50133 117.179 4.704 116.987 4.896C116.817 5.06667 116.603 5.20533 116.347 5.312C115.451 4.992 114.641 4.77867 113.915 4.672C113.937 4.992 113.947 5.45067 113.947 6.048C113.947 6.90133 113.937 7.66933 113.915 8.352C113.851 9.376 113.819 10.144 113.819 10.656L113.915 11.168L114.427 11.136C114.598 11.1147 114.811 11.104 115.067 11.104C116.091 11.104 116.603 11.4027 116.603 12C116.603 12.2347 116.507 12.4373 116.315 12.608C116.123 12.7573 115.878 12.832 115.579 12.832C115.195 12.832 114.897 12.8107 114.683 12.768H113.883C113.926 13.3227 113.947 14.1333 113.947 15.2C113.947 16.2667 113.937 17.2267 113.915 18.08C113.851 19.3813 113.819 20.352 113.819 20.992C113.819 22.1867 113.841 22.784 113.883 22.784L114.939 22.752C115.302 22.7307 115.739 22.72 116.251 22.72C117.062 22.72 117.467 22.976 117.467 23.488C117.467 23.7867 117.329 24.0107 117.051 24.16C116.795 24.3307 116.475 24.416 116.091 24.416H113.371Z" fill="#5A98D0"/>
</svg>
