<svg width="23" height="22" viewBox="0 0 23 22" fill="none" xmlns="http://www.w3.org/2000/svg">
  <path d="M15.25 11L21.5 17.25C21.875 17.625 22.0625 18.0833 22.0625 18.625C22.0625 19.1667 21.875 19.6458 21.5 20.0625L20.125 21.4375C19.7083 21.8125 19.2292 22 18.6875 22C18.1458 22 17.6875 21.8125 17.3125 21.4375L11.0625 15.1875L4.8125 21.4375C4.4375 21.8125 3.97917 22 3.4375 22C2.89583 22 2.41667 21.8125 2 21.4375L0.625 20.0625C0.25 19.6458 0.0625 19.1667 0.0625 18.625C0.0625 18.0833 0.25 17.625 0.625 17.25L6.875 11L0.625 4.75C0.25 4.375 0.0625 3.91667 0.0625 3.375C0.0625 2.83333 0.25 2.35417 0.625 1.9375L2 0.5625C2.41667 0.1875 2.89583 0 3.4375 0C3.97917 0 4.4375 0.1875 4.8125 0.5625L11.0625 6.8125L17.3125 0.5625C17.6875 0.1875 18.1458 0 18.6875 0C19.2292 0 19.7083 0.1875 20.125 0.5625L21.5 1.9375C21.875 2.35417 22.0625 2.83333 22.0625 3.375C22.0625 3.91667 21.875 4.375 21.5 4.75L15.25 11Z" fill="white"/>
</svg>
